<svg width="47" height="46" viewBox="0 0 47 46" fill="none" xmlns="http://www.w3.org/2000/svg">
<rect x="5.5766" y="22.9558" width="30" height="4" rx="2" transform="rotate(-30 5.5766 22.9558)" fill="url(#paint0_linear_3_14)"/>
<rect x="9.00479" y="12.8936" width="15" height="4" rx="2" transform="rotate(-30 9.00479 12.8936)" fill="url(#paint1_linear_3_14)"/>
<rect x="21.2727" y="38.1423" width="15" height="4" rx="2" transform="rotate(-30 21.2727 38.1423)" fill="url(#paint2_linear_3_14)"/>
<rect x="7.34454" y="30.0179" width="35" height="4" rx="2" transform="rotate(-30 7.34454 30.0179)" fill="url(#paint3_linear_3_14)"/>
<rect x="12.5766" y="35.0801" width="30" height="4" rx="2" transform="rotate(-30 12.5766 35.0801)" fill="url(#paint4_linear_3_14)"/>
<defs>
<linearGradient id="paint0_linear_3_14" x1="5.5766" y1="24.9558" x2="35.5766" y2="24.9558" gradientUnits="userSpaceOnUse">
<stop stop-color="#D9D9D9"/>
<stop offset="1" stop-color="#E75E8D"/>
</linearGradient>
<linearGradient id="paint1_linear_3_14" x1="9.00479" y1="14.8936" x2="24.0048" y2="14.8936" gradientUnits="userSpaceOnUse">
<stop stop-color="#D9D9D9"/>
<stop offset="1" stop-color="#E75E8D"/>
</linearGradient>
<linearGradient id="paint2_linear_3_14" x1="21.2727" y1="40.1423" x2="36.2727" y2="40.1423" gradientUnits="userSpaceOnUse">
<stop stop-color="#D9D9D9"/>
<stop offset="1" stop-color="#E75E8D"/>
</linearGradient>
<linearGradient id="paint3_linear_3_14" x1="7.34454" y1="32.0179" x2="42.3445" y2="32.0179" gradientUnits="userSpaceOnUse">
<stop stop-color="#D9D9D9"/>
<stop offset="1" stop-color="#E75E8D"/>
</linearGradient>
<linearGradient id="paint4_linear_3_14" x1="12.5766" y1="37.0801" x2="42.5766" y2="37.0801" gradientUnits="userSpaceOnUse">
<stop stop-color="#D9D9D9"/>
<stop offset="1" stop-color="#E75E8D"/>
</linearGradient>
</defs>
</svg>
