<svg width="30" height="30" viewBox="0 0 30 30" fill="none" xmlns="http://www.w3.org/2000/svg">
<path d="M19.4452 18.1846L18.8759 18.784C18.8759 18.784 17.5226 20.2087 13.8289 16.3199C10.1351 12.431 11.4884 11.0063 11.4884 11.0063L11.8469 10.6289C12.7301 9.69905 12.8134 8.20621 12.0428 7.11637L10.4666 4.88701C9.51285 3.53813 7.66995 3.35994 6.57681 4.5108L4.61481 6.57642C4.07279 7.14707 3.70956 7.88681 3.75361 8.70742C3.8663 10.8068 4.76339 15.3237 9.7692 20.594C15.0776 26.1827 20.0585 26.4049 22.0954 26.2039C22.7396 26.1402 23.2999 25.7929 23.7514 25.3175L25.5271 23.448C26.7257 22.1861 26.3877 20.0227 24.8541 19.14L22.466 17.7654C21.459 17.1857 20.2322 17.356 19.4452 18.1846Z" fill="#F1F1F1"/>
</svg>
